<?xml version="1.0" standalone="no"?>
<!DOCTYPE svg PUBLIC "-//W3C//DTD SVG 20010904//EN"
 "http://www.w3.org/TR/2001/REC-SVG-20010904/DTD/svg10.dtd">
<svg version="1.0" xmlns="http://www.w3.org/2000/svg"
 width="200.000000pt" height="200.000000pt" viewBox="0 0 200.000000 200.000000"
 preserveAspectRatio="xMidYMid meet">

<g transform="translate(0.000000,200.000000) scale(0.100000,-0.100000)"
fill="#000000" stroke="none">
<path d="M943 1982 c-6 -4 -17 -20 -22 -35 -38 -100 40 -167 118 -101 62 52
28 144 -53 144 -17 0 -36 -4 -43 -8z"/>
<path d="M1204 1861 c-31 -14 -74 -69 -74 -97 0 -30 14 -60 43 -91 30 -33 124
-33 155 0 26 27 37 92 23 129 -18 48 -97 80 -147 59z"/>
<path d="M669 1831 c-23 -24 -29 -38 -29 -75 0 -56 15 -91 47 -105 75 -34 173
22 173 99 0 29 -26 76 -52 94 -12 9 -42 16 -66 16 -35 0 -49 -6 -73 -29z"/>
<path d="M424 1816 c-35 -15 -44 -33 -44 -79 1 -36 15 -58 47 -75 34 -18 52
-14 84 17 69 69 2 175 -87 137z"/>
<path d="M1465 1804 c-29 -31 -29 -34 -11 -79 28 -66 89 -80 135 -31 55 59 22
136 -59 136 -31 0 -47 -6 -65 -26z"/>
<path d="M920 1720 c-26 -26 -40 -62 -40 -105 0 -44 -42 -95 -78 -95 -19 0
-41 15 -77 55 -45 48 -56 55 -89 55 -49 0 -92 -23 -116 -63 -25 -41 -25 -68 0
-117 27 -53 26 -101 -3 -128 -19 -18 -35 -22 -93 -22 -83 0 -122 -20 -149 -75
-17 -37 -17 -40 1 -84 17 -40 25 -47 69 -63 72 -26 99 -71 73 -124 -9 -20 -29
-34 -68 -49 -43 -16 -59 -28 -72 -55 -31 -63 -16 -119 43 -161 25 -18 39 -20
77 -16 26 4 57 9 69 13 17 5 31 -2 58 -29 41 -41 40 -63 -2 -129 -47 -76 -21
-157 58 -178 55 -15 101 0 155 49 80 74 154 45 154 -60 0 -40 5 -53 34 -83 42
-45 94 -49 146 -11 45 33 50 42 50 93 0 54 12 78 51 97 37 20 64 13 109 -30
45 -42 71 -55 109 -55 47 0 79 17 101 52 26 43 25 76 -5 144 -32 71 -31 79 4
115 29 28 31 29 104 23 67 -6 78 -4 106 15 93 67 74 172 -39 218 -63 25 -80
44 -80 90 0 28 9 39 65 84 36 28 70 59 75 69 26 48 -2 129 -56 165 -20 13 -38
15 -93 9 -118 -11 -152 32 -105 136 31 69 27 98 -15 141 -34 34 -90 46 -131
29 -17 -7 -49 -34 -71 -61 -24 -28 -49 -49 -61 -49 -24 0 -78 52 -78 75 0 34
-42 113 -66 124 -41 18 -101 14 -124 -9z m115 -210 c43 -47 -25 -112 -79 -76
-28 18 -35 63 -14 84 19 19 73 14 93 -8z m-283 -67 c44 -40 10 -96 -56 -91
-40 3 -41 4 -44 43 -3 29 1 43 14 52 25 18 64 16 86 -4z m580 0 c21 -19 24
-66 5 -81 -42 -35 -117 -15 -117 31 0 58 69 89 112 50z m-190 -80 c24 -21 23
-38 -3 -56 -27 -20 -58 -10 -65 19 -12 46 32 70 68 37z m-234 -5 c18 -18 14
-36 -12 -53 -27 -18 -53 -11 -61 16 -13 39 43 67 73 37z m-164 -120 c21 -30 4
-58 -34 -58 -24 0 -31 5 -36 27 -5 19 -2 30 11 40 26 18 42 16 59 -9z m571
-23 c0 -26 -3 -30 -29 -30 -36 0 -56 26 -36 50 8 9 24 15 39 13 22 -2 26 -8
26 -33z m197 -2 c24 -21 23 -58 -2 -83 -26 -26 -46 -25 -75 5 -30 29 -31 49
-5 75 24 24 57 26 82 3z m-948 -9 c36 -35 3 -104 -49 -104 -50 0 -70 84 -26
110 24 14 58 12 75 -6z m86 -185 c18 -32 4 -69 -25 -69 -35 0 -51 34 -30 66
19 30 41 31 55 3z m764 5 c23 -22 20 -41 -9 -60 -30 -19 -55 -6 -55 30 0 42
36 59 64 30z m108 -131 c20 -18 24 -73 6 -91 -20 -20 -65 -14 -82 10 -21 29
-20 40 5 72 24 30 45 33 71 9z m-958 -25 c33 -46 14 -88 -39 -88 -37 0 -55 16
-55 48 0 61 62 87 94 40z m767 -58 c21 -12 25 -40 7 -58 -36 -36 -96 11 -62
49 20 22 28 23 55 9z m-597 -23 c11 -8 17 -23 14 -38 -4 -34 -61 -40 -79 -8
-10 20 -9 25 11 41 27 21 31 22 54 5z m410 -113 c19 -18 20 -28 6 -55 -12 -21
-40 -25 -58 -7 -18 18 -15 55 6 67 23 14 28 14 46 -5z m-216 -30 c4 -26 -21
-48 -47 -39 -45 14 -30 69 18 63 17 -2 27 -10 29 -24z m-169 -36 c31 -54 -31
-109 -84 -74 -28 18 -35 72 -13 94 22 22 81 10 97 -20z m597 6 c11 -44 -7 -79
-42 -82 -53 -5 -80 40 -54 89 8 14 21 19 50 19 34 0 40 -3 46 -26z m-315 -94
c39 -21 12 -100 -34 -100 -25 0 -67 37 -67 58 0 41 57 65 101 42z"/>
<path d="M1610 1583 c-24 -9 -61 -46 -71 -71 -20 -51 46 -142 103 -142 58 0
134 81 123 130 -9 40 -69 90 -107 89 -18 0 -40 -3 -48 -6z"/>
<path d="M314 1570 c-31 -12 -74 -68 -74 -96 0 -65 51 -116 115 -116 59 0 92
22 117 78 l19 45 -21 35 c-35 55 -98 78 -156 54z"/>
<path d="M1827 1372 c-48 -30 -49 -97 -1 -129 85 -55 183 49 114 122 -28 30
-72 33 -113 7z"/>
<path d="M84 1351 c-28 -12 -57 -75 -48 -104 9 -31 54 -66 86 -67 14 0 40 12
57 26 58 49 32 136 -44 149 -17 2 -39 1 -51 -4z"/>
<path d="M1784 1106 c-47 -21 -74 -61 -74 -112 0 -51 24 -78 82 -96 32 -9 44
-8 79 7 44 20 59 46 59 101 0 45 -14 70 -48 88 -46 23 -66 26 -98 12z"/>
<path d="M169 1100 c-34 -10 -72 -31 -81 -44 -4 -6 -8 -36 -8 -66 0 -50 3 -57
33 -81 46 -37 70 -42 113 -24 74 31 94 70 75 143 -16 57 -74 89 -132 72z"/>
<path d="M1855 798 c-50 -27 -60 -80 -22 -122 54 -63 137 -30 137 53 0 66 -58
101 -115 69z"/>
<path d="M60 748 c-28 -46 -25 -82 7 -113 64 -59 171 -2 147 78 -13 44 -45 67
-91 67 -38 0 -46 -4 -63 -32z"/>
<path d="M1618 643 c-15 -10 -34 -35 -43 -55 -13 -34 -13 -43 -1 -72 14 -34
78 -86 104 -86 28 0 78 31 95 59 19 33 22 92 6 123 -13 23 -67 48 -106 48 -15
0 -40 -8 -55 -17z"/>
<path d="M310 621 c-42 -22 -80 -74 -80 -110 0 -77 119 -136 180 -88 76 59 62
166 -26 203 -41 17 -33 18 -74 -5z"/>
<path d="M1223 334 c-87 -45 -96 -131 -18 -196 38 -32 121 -13 146 33 22 42 4
132 -31 154 -30 19 -70 22 -97 9z"/>
<path d="M420 333 c-62 -23 -81 -103 -35 -148 35 -36 79 -33 116 7 34 38 36
59 9 103 -23 38 -54 51 -90 38z"/>
<path d="M701 314 c-71 -60 -60 -143 25 -184 44 -22 48 -22 80 -7 42 21 74 71
74 117 0 40 -4 48 -44 78 -40 31 -96 29 -135 -4z"/>
<path d="M1506 308 c-22 -30 -20 -81 2 -101 39 -35 132 -7 132 39 0 24 -28 71
-45 78 -35 13 -74 6 -89 -16z"/>
<path d="M965 129 c-30 -17 -45 -40 -45 -70 0 -54 7 -59 80 -59 73 0 80 5 80
60 0 55 -67 96 -115 69z"/>
</g>
</svg>
