<?xml version="1.0" standalone="no"?>
<!DOCTYPE svg PUBLIC "-//W3C//DTD SVG 20010904//EN"
 "http://www.w3.org/TR/2001/REC-SVG-20010904/DTD/svg10.dtd">
<svg version="1.0" xmlns="http://www.w3.org/2000/svg"
 width="1168.000000pt" height="1082.000000pt" viewBox="0 0 1168.000000 1082.000000"
 preserveAspectRatio="xMidYMid meet">

<g transform="translate(0.000000,1082.000000) scale(0.100000,-0.100000)"
fill="#000000" stroke="none">
<path d="M5085 10525 c-32 -31 -33 -78 -3 -99 42 -30 91 -19 114 26 14 27 14
32 -1 54 -15 23 -52 44 -76 44 -5 0 -21 -11 -34 -25z"/>
<path d="M4515 10415 c-41 -40 -27 -97 27 -110 38 -10 66 2 84 36 20 40 10 68
-32 85 -45 19 -51 18 -79 -11z"/>
<path d="M5720 10311 c-42 -13 -84 -38 -109 -65 -20 -21 -25 -39 -30 -112 l-6
-87 -105 -34 c-58 -18 -134 -41 -170 -51 -44 -12 -66 -23 -68 -35 -6 -29 60
-21 203 24 72 22 140 44 152 49 18 7 31 4 59 -15 20 -13 52 -27 73 -31 56 -9
56 -9 68 -55 7 -24 19 -69 27 -99 8 -30 23 -83 32 -118 l17 -63 -36 -30 c-35
-29 -67 -79 -67 -105 0 -17 -56 -31 -160 -38 -55 -4 -89 -11 -95 -20 -8 -11
-19 -5 -54 30 -33 33 -53 45 -88 50 -28 4 -46 12 -49 23 -10 31 -49 106 -96
183 -27 43 -48 83 -48 88 0 6 9 28 20 50 45 89 7 212 -88 279 -45 32 -136 40
-196 17 -47 -18 -110 -79 -126 -122 -17 -44 -12 -136 10 -177 11 -20 20 -42
20 -48 0 -6 -31 -66 -68 -133 -72 -129 -93 -170 -102 -200 -4 -16 -16 -19 -76
-20 -48 -1 -79 -7 -97 -19 -26 -17 -27 -17 -84 30 -32 25 -85 72 -119 102 -33
31 -83 74 -111 96 l-50 40 5 61 c6 76 -13 116 -68 144 -75 38 -164 18 -207
-46 -24 -37 -24 -131 0 -168 43 -65 138 -86 204 -45 l35 22 51 -50 c29 -27 81
-73 117 -103 36 -30 81 -69 100 -87 19 -18 41 -33 48 -33 17 0 16 -3 -19 -68
-28 -51 -30 -64 -26 -122 6 -100 59 -182 135 -211 16 -6 22 -15 18 -24 -11
-29 -55 -220 -58 -250 -2 -21 -11 -34 -30 -43 -29 -14 -38 -48 -18 -68 8 -8 5
-34 -9 -86 -33 -123 -34 -125 -92 -145 -71 -24 -109 -76 -109 -145 0 -58 22
-110 58 -139 l25 -20 -40 -82 c-22 -45 -44 -93 -48 -105 -6 -20 -11 -23 -33
-16 -15 3 -56 10 -91 13 l-63 6 -55 95 c-29 52 -65 111 -78 130 -13 19 -42 66
-65 104 l-41 69 30 31 c129 133 41 343 -150 358 -13 1 -47 -4 -74 -11 -180
-44 -212 -292 -49 -387 44 -26 110 -34 178 -22 20 3 20 3 180 -266 l76 -129
-39 -39 c-36 -36 -47 -62 -65 -148 -6 -27 -9 -28 -161 -65 -118 -29 -122 -29
-129 -7 -10 30 -79 98 -120 117 -76 36 -188 14 -254 -48 -48 -46 -64 -88 -64
-160 0 -134 105 -229 239 -214 27 2 55 7 63 10 19 7 230 -234 230 -263 0 -30
41 -53 74 -41 21 9 26 17 26 45 0 38 -25 61 -54 50 -10 -4 -16 -1 -16 8 0 8
-10 23 -21 34 -12 10 -58 59 -101 108 l-80 88 26 24 c36 34 54 72 62 132 6 46
9 52 30 52 28 0 144 26 203 46 47 16 71 13 71 -9 0 -23 85 -97 123 -108 32 -8
37 -14 37 -38 0 -16 6 -64 14 -107 8 -44 17 -103 20 -131 5 -52 4 -53 -31 -77
-70 -48 -95 -123 -73 -215 14 -60 61 -111 117 -127 37 -10 38 -12 50 -75 44
-240 47 -263 34 -267 -32 -11 -97 -72 -119 -112 -21 -39 -23 -55 -19 -123 3
-68 8 -84 35 -123 18 -24 32 -49 32 -55 0 -11 -26 -44 -102 -127 l-40 -43 -33
15 c-18 9 -58 16 -89 16 -68 0 -121 -24 -174 -79 -33 -35 -38 -37 -61 -25 -33
16 -65 28 -121 45 l-45 14 -6 56 c-8 75 -41 141 -91 181 -36 28 -49 32 -118
36 -67 4 -84 1 -125 -19 -26 -13 -59 -39 -73 -57 -29 -39 -54 -134 -46 -179 7
-36 32 -22 -241 -138 -99 -43 -193 -84 -208 -92 -26 -13 -30 -12 -69 21 -90
78 -241 55 -298 -45 -26 -48 -27 -141 -1 -189 50 -93 151 -124 253 -77 77 35
102 73 107 165 l3 73 44 19 c23 11 45 20 48 20 3 0 49 20 102 45 53 25 101 45
107 46 7 0 48 17 92 39 l80 38 41 -39 c22 -22 63 -48 90 -58 57 -22 52 6 39
-251 -8 -173 -17 -200 -65 -200 -20 0 -46 -14 -81 -42 -66 -55 -91 -113 -88
-210 1 -37 0 -70 -2 -72 -6 -5 -240 -117 -278 -133 -18 -8 -51 -26 -73 -40
l-40 -25 -29 35 c-55 66 -139 92 -225 68 -108 -29 -168 -176 -114 -280 94
-184 380 -118 380 88 0 51 8 64 50 76 29 9 341 163 353 174 4 4 24 -7 43 -26
20 -18 50 -41 67 -50 34 -17 133 -23 183 -10 29 7 33 4 95 -70 35 -43 77 -96
93 -118 16 -22 32 -42 35 -45 3 -3 16 -17 29 -31 23 -26 23 -27 7 -83 -20 -67
-14 -100 27 -176 l30 -56 -65 -100 -66 -100 -65 4 c-49 3 -76 0 -103 -13 -160
-74 -178 -274 -33 -362 150 -91 341 34 315 206 -8 54 -19 77 -52 112 l-24 26
56 79 c32 43 63 91 71 107 12 23 18 26 34 17 10 -5 47 -10 81 -10 51 0 68 5
95 25 40 30 46 31 70 4 10 -12 66 -55 124 -96 l104 -74 -3 -80 c-2 -66 1 -84
19 -113 62 -101 169 -139 282 -100 25 8 54 24 64 35 9 10 21 19 25 19 5 0 53
-21 106 -46 54 -26 134 -62 178 -80 l80 -33 5 -58 c6 -63 35 -135 68 -169 l21
-22 -33 -48 c-61 -90 -122 -188 -161 -260 l-38 -72 -76 5 c-65 5 -83 2 -117
-15 -182 -93 -131 -383 70 -400 208 -17 319 214 176 366 l-21 22 24 33 c28 36
127 201 172 283 32 59 46 64 97 38 21 -11 46 -15 75 -11 39 4 46 2 53 -17 4
-11 25 -61 46 -111 20 -49 52 -128 71 -175 18 -47 38 -93 44 -103 8 -15 4 -26
-25 -57 -107 -119 -20 -320 139 -320 147 0 232 147 168 287 -16 35 -27 18 93
153 27 30 71 83 97 117 27 35 50 63 53 63 3 0 17 -9 33 -21 18 -13 50 -23 90
-26 47 -5 61 -9 61 -22 0 -14 58 -251 75 -306 5 -16 -3 -28 -34 -53 -71 -57
-79 -158 -17 -225 104 -114 295 -1 247 146 -14 41 -65 91 -106 104 -29 9 -31
14 -72 174 -23 90 -42 169 -42 176 -1 6 21 25 48 41 50 31 94 80 106 120 l6
22 263 0 264 0 5 -30 c17 -81 110 -170 179 -170 44 0 41 7 63 -125 9 -55 20
-120 25 -144 8 -42 6 -46 -25 -76 -88 -82 -42 -235 70 -235 42 0 95 20 113 43
22 28 33 86 23 123 -11 39 -64 94 -91 94 -26 0 -40 22 -40 64 -1 23 -7 77 -16
121 -8 44 -17 94 -20 111 -6 28 -3 32 22 38 43 11 97 60 123 111 19 39 23 58
19 119 -4 83 -30 132 -93 175 -42 28 -145 40 -196 22 -32 -11 -35 -10 -53 16
-11 15 -56 65 -100 110 -75 78 -79 84 -68 108 19 41 15 135 -7 171 -26 43 -77
80 -126 91 -43 9 -51 25 -54 104 -1 31 3 38 23 43 34 8 83 52 114 100 49 78
30 210 -40 272 -72 63 -201 78 -275 31 -23 -14 -44 -31 -48 -37 -3 -6 -41 18
-88 56 -45 37 -88 69 -94 71 -17 7 -16 28 2 43 20 16 29 71 20 126 -5 34 -16
56 -48 89 -37 38 -41 46 -30 61 7 10 13 26 13 36 0 25 36 58 63 58 27 0 71 43
87 84 26 69 -47 156 -130 156 -59 0 -98 -30 -110 -85 -12 -53 -4 -81 37 -131
33 -41 33 -43 21 -82 -12 -40 -13 -41 -78 -52 -36 -6 -74 -12 -84 -13 -13 -1
-34 17 -64 53 -24 30 -60 72 -78 93 l-34 38 31 26 c47 40 69 93 70 169 1 51 5
67 18 71 28 8 94 44 152 83 l56 36 29 -22 c36 -29 111 -54 162 -54 37 0 41 -3
56 -39 13 -33 30 -51 96 -99 2 -1 -1 -12 -8 -23 -74 -119 -89 -178 -91 -372
-1 -130 11 -165 68 -201 77 -49 175 -25 219 53 20 35 23 53 21 123 -4 147 10
214 62 288 61 88 77 123 85 184 8 65 18 76 63 76 38 0 122 21 176 45 82 35
276 88 340 92 96 6 135 24 168 79 60 100 13 215 -98 238 -41 9 -173 -9 -259
-35 -83 -25 -83 -25 -163 -54 -65 -24 -73 -23 -73 6 0 20 -54 69 -76 69 -8 0
-14 4 -14 10 0 6 17 7 43 4 66 -9 122 11 176 64 27 26 50 53 52 60 3 9 51 14
177 17 l172 6 0 -24 c0 -45 60 -119 120 -149 30 -15 64 -28 76 -28 19 0 21 -4
16 -49 -9 -94 56 -182 145 -197 81 -13 130 2 185 57 l50 50 46 -29 c84 -51
224 -92 315 -92 23 0 53 -7 67 -15 94 -54 125 -65 200 -65 47 0 86 6 104 15
15 8 38 15 51 15 31 0 158 -43 270 -90 187 -80 323 -110 493 -110 43 0 76 -7
116 -26 48 -22 66 -25 119 -20 81 7 73 7 217 0 118 -6 128 -5 180 18 31 14 64
33 74 44 15 15 31 18 78 16 75 -4 138 24 170 76 30 49 30 124 0 176 -19 33
-21 41 -9 55 7 9 23 39 36 66 13 28 30 58 38 67 17 19 8 44 -10 30 -7 -5 -28
-13 -47 -17 -19 -4 -61 -20 -94 -36 -59 -29 -106 -38 -106 -18 0 9 17 50 60
144 10 23 14 42 8 44 -13 5 -135 -38 -172 -60 -33 -20 -63 -24 -83 -11 -9 6 0
32 32 97 24 49 42 91 41 93 -7 6 -112 -30 -169 -59 -64 -33 -85 -36 -93 -14
-5 13 22 83 61 158 8 15 10 27 6 27 -21 0 -139 -43 -179 -65 -29 -16 -52 -23
-68 -19 -13 3 -24 9 -24 13 0 3 20 45 43 93 24 49 42 90 40 92 -7 7 -101 -26
-163 -58 -61 -32 -67 -33 -93 -20 -15 8 -27 16 -27 17 0 6 73 143 83 155 5 7
8 15 5 17 -7 7 -148 -35 -190 -56 -36 -18 -36 -18 -65 3 -15 12 -30 23 -32 25
-2 1 2 9 9 17 6 9 27 40 45 71 38 63 42 61 -85 39 -50 -8 -98 -12 -108 -9 -9
4 -35 28 -57 55 -60 71 -104 93 -173 87 -32 -3 -66 -8 -77 -11 -15 -5 -25 2
-40 26 -28 46 -106 75 -155 58 -19 -7 -47 -24 -62 -38 -25 -23 -28 -32 -28
-94 0 -47 -4 -68 -12 -68 -7 0 -41 -14 -75 -31 l-61 -31 -32 29 c-40 36 -89
63 -116 63 -45 0 -84 13 -84 27 0 15 -16 67 -48 162 -14 42 -14 46 3 55 36 21
76 72 86 111 21 77 72 100 106 48 57 -88 172 -138 262 -114 25 7 58 18 72 25
35 17 198 3 292 -26 68 -21 137 -19 180 3 23 13 113 -4 174 -33 33 -15 77 -24
143 -29 52 -3 120 -14 150 -23 92 -28 251 -56 318 -56 l62 0 -6 -57 c-3 -32
-7 -64 -10 -70 -6 -23 13 -14 103 46 184 121 184 121 183 -11 -1 -57 -1 -107
-1 -113 1 -11 95 86 174 179 64 75 84 74 91 -1 4 -32 10 -85 14 -118 l7 -60
65 89 c91 125 134 171 152 163 10 -3 22 -34 32 -79 9 -40 20 -79 24 -86 6 -8
37 27 96 108 48 66 91 120 95 120 9 0 71 -124 71 -141 0 -6 6 -9 13 -7 12 4
64 124 88 205 11 36 18 42 47 48 72 13 120 59 165 155 28 60 31 75 35 201 4
115 1 149 -17 220 -12 46 -26 93 -31 104 -5 11 -21 51 -36 88 -14 38 -42 96
-61 130 -92 165 -327 428 -462 518 -116 77 -163 97 -416 174 -134 41 -200 63
-230 76 -11 5 -49 19 -85 32 -119 44 -314 139 -357 174 -44 36 -88 53 -140 53
-21 0 -40 8 -55 23 -31 32 -83 61 -143 82 -39 13 -84 16 -199 16 -203 -1 -227
7 -598 202 -60 32 -113 57 -119 57 -21 0 -82 34 -113 62 -81 76 -209 126 -341
134 -71 5 -103 12 -149 35 -62 30 -131 38 -179 20 -41 -16 -96 -71 -105 -104
-11 -43 -27 -44 -43 -4 -15 38 -88 104 -124 113 -27 7 -141 0 -170 -10 -17 -6
-25 2 -49 46 -16 29 -46 78 -67 110 l-38 56 21 28 c15 19 23 46 26 86 4 51 1
64 -22 99 -63 95 -205 92 -265 -5 -25 -40 -28 -119 -6 -156 8 -14 17 -30 20
-36 3 -6 -16 -40 -42 -75 -27 -36 -71 -99 -98 -142 -31 -48 -55 -75 -63 -72
-8 3 -26 5 -40 5 -42 0 -53 13 -68 81 -8 35 -25 105 -38 154 l-24 90 30 32
c25 26 32 43 36 86 7 86 -28 136 -112 161 -41 13 -53 13 -92 -1 -27 -9 -56
-29 -75 -51 -28 -34 -30 -42 -26 -97 2 -33 7 -69 11 -81 6 -17 -9 -38 -86
-116 l-93 -95 -47 34 c-36 26 -59 35 -100 38 l-53 3 -12 44 c-6 23 -23 88 -38
143 -40 146 -40 142 -16 154 31 17 72 76 81 118 18 77 -21 163 -90 198 -35 17
-90 25 -120 16z m-815 -566 c54 -19 110 -19 167 2 26 9 49 15 51 12 46 -65
147 -240 147 -254 0 -3 -7 -5 -16 -5 -17 0 -80 -44 -106 -75 -17 -21 -40 -90
-42 -128 -1 -18 -7 -22 -41 -24 -22 -1 -89 -4 -148 -7 l-108 -5 -19 44 c-11
25 -40 64 -65 88 l-47 43 48 89 c26 50 60 117 77 150 32 64 46 85 56 85 3 0
24 -7 46 -15z m1491 -35 c26 -11 55 -18 65 -15 13 4 19 1 19 -9 0 -9 0 -17 0
-18 0 -2 16 -61 35 -133 31 -121 33 -131 17 -143 -44 -33 -101 -95 -112 -122
-11 -27 -15 -29 -29 -17 -9 7 -64 37 -123 65 -64 31 -108 58 -112 69 -2 10 -6
48 -8 84 l-3 66 60 50 c33 27 78 71 99 96 22 26 41 47 42 47 1 0 24 -9 50 -20z
m708 -114 c11 -21 41 -68 68 -103 52 -70 54 -75 35 -92 -8 -6 -22 -40 -32 -75
l-19 -65 -45 -5 c-25 -3 -86 -8 -136 -11 -49 -3 -107 -8 -127 -11 -35 -5 -38
-4 -38 19 0 13 -13 43 -30 65 -16 23 -30 47 -30 52 0 11 15 33 126 183 l61 82
74 0 74 1 19 -40z m-1349 -208 c13 -57 44 -107 85 -134 32 -21 50 -26 104 -25
76 0 110 15 155 67 29 32 34 34 49 22 24 -21 206 -98 230 -98 16 0 22 -9 27
-42 16 -94 76 -161 165 -184 42 -10 46 -14 52 -50 4 -21 7 -65 7 -96 1 -46 -2
-58 -14 -58 -24 0 -95 -39 -101 -55 -4 -10 -28 3 -87 46 -106 76 -138 94 -146
80 -4 -6 -5 18 -3 53 5 79 -20 134 -79 172 -83 52 -218 24 -262 -56 -15 -27
-18 -49 -15 -112 l3 -78 -42 -16 c-24 -9 -48 -23 -54 -30 -18 -22 -44 -16 -67
16 -30 40 -93 70 -159 77 -38 4 -56 11 -60 22 -2 9 -27 62 -54 119 -27 56 -49
105 -49 108 0 3 15 26 32 52 30 44 33 53 33 130 l0 82 70 1 c58 0 94 4 167 18
3 0 10 -14 13 -31z m-635 -166 c0 -17 78 -86 118 -104 33 -15 54 -18 100 -12
l58 6 29 -68 c16 -38 42 -91 57 -117 15 -26 28 -49 28 -51 0 -2 -20 -23 -44
-47 -72 -72 -83 -156 -31 -245 30 -50 59 -71 124 -85 62 -13 122 1 173 42 41
32 48 35 48 17 0 -14 172 -138 201 -145 15 -4 19 -15 19 -56 0 -187 222 -255
321 -99 35 55 36 91 5 157 -27 59 -39 70 -91 87 l-39 13 -18 115 c-22 149 -23
147 8 154 14 4 37 18 51 32 l25 25 41 -34 c23 -18 70 -52 104 -76 l61 -42 -5
-77 c-5 -65 -2 -86 16 -128 12 -28 38 -66 56 -84 32 -31 33 -35 21 -59 -7 -14
-25 -65 -40 -113 -28 -89 -28 -90 -92 -103 -62 -12 -111 -96 -97 -166 5 -24 0
-31 -43 -58 -60 -37 -71 -38 -96 -6 -57 73 -204 98 -303 51 -77 -36 -114 -88
-132 -185 l-8 -43 -100 -5 -100 -5 -13 34 c-6 19 -25 47 -41 62 -60 57 -176
32 -217 -46 -42 -80 16 -178 113 -194 52 -8 106 17 134 62 19 31 25 34 72 35
29 0 73 4 99 8 26 4 51 5 55 2 4 -3 19 -28 33 -56 14 -27 37 -64 52 -81 l27
-30 -82 -88 c-79 -84 -83 -87 -110 -77 -70 27 -157 -1 -187 -60 -24 -46 -25
-85 -4 -128 8 -17 14 -35 12 -39 -2 -5 -33 -34 -69 -65 l-67 -56 -23 26 c-76
81 -214 82 -288 2 l-20 -21 -23 21 c-12 12 -58 42 -100 67 -43 25 -81 50 -84
55 -3 6 -7 53 -8 105 l-1 96 63 44 c51 36 67 42 82 34 33 -17 101 4 137 44 63
69 53 171 -22 213 -50 28 -93 29 -149 2 -66 -30 -83 -95 -49 -180 16 -40 15
-42 -3 -55 -10 -8 -36 -31 -57 -51 l-37 -37 -28 27 c-15 14 -51 34 -79 43 -45
15 -59 15 -99 4 -25 -7 -60 -25 -76 -38 -30 -25 -30 -25 -47 -6 -9 11 -58 54
-108 94 -51 41 -93 79 -93 85 0 6 5 16 11 22 6 6 12 40 12 75 0 64 -17 112
-51 151 -15 17 -15 21 2 50 10 18 36 66 58 108 39 79 50 89 97 89 37 0 106 61
121 106 7 21 9 54 5 82 -6 39 -15 55 -57 96 -50 48 -50 49 -35 75 8 14 18 49
22 76 10 66 21 85 49 85 13 0 29 7 36 15 11 13 9 20 -9 38 -26 29 -26 30 4
157 46 192 40 180 86 180 44 0 100 25 139 62 29 26 70 105 79 152 l7 31 109 6
c61 3 129 6 153 7 23 1 42 -2 42 -6z m2070 -58 c29 -41 30 -47 17 -62 -8 -9
-29 -42 -46 -72 -27 -49 -37 -58 -81 -74 -28 -10 -59 -29 -69 -42 -23 -30 -27
-30 -35 -1 -3 12 -36 46 -73 75 -123 95 -113 81 -97 142 7 29 15 54 16 55 3 2
205 17 310 23 22 2 33 -7 58 -44z m448 7 c89 -73 150 -88 232 -55 38 15 45 15
113 -1 62 -16 162 -61 218 -99 12 -8 -14 -10 -101 -8 -96 3 -129 0 -181 -16
-83 -26 -132 -47 -180 -78 -21 -13 -41 -24 -44 -24 -3 0 -5 19 -5 43 -1 96
-110 143 -182 78 -30 -27 -33 -34 -33 -90 0 -56 3 -63 30 -86 20 -16 43 -24
68 -25 39 0 46 -10 22 -30 -8 -7 -38 -50 -65 -95 -44 -72 -54 -84 -84 -89 -44
-8 -93 -59 -107 -110 -18 -65 -3 -124 42 -169 23 -23 39 -49 39 -63 0 -35 27
-154 45 -199 66 -165 172 -278 334 -356 39 -19 71 -40 71 -47 0 -7 -7 -27 -16
-44 -12 -24 -15 -50 -12 -102 8 -116 61 -181 172 -210 102 -27 220 15 274 97
24 35 27 50 27 121 0 45 -4 96 -8 114 -8 30 -7 32 17 32 39 0 136 42 208 90
140 93 268 304 268 442 0 34 3 39 18 33 9 -4 32 -9 50 -12 40 -7 39 -6 51 -79
5 -32 12 -66 16 -75 4 -12 -4 -23 -30 -39 -60 -37 -85 -84 -85 -160 1 -37 7
-76 15 -90 18 -32 19 -60 1 -60 -7 0 -19 -6 -25 -14 -7 -8 -50 -39 -96 -70
-46 -31 -88 -64 -94 -73 -9 -16 -11 -16 -28 -1 -65 59 -173 2 -173 -91 0 -47
21 -81 62 -102 45 -23 60 -24 97 -4 40 20 65 77 57 131 -5 36 -3 44 10 44 19
0 154 92 202 138 34 31 36 32 61 16 14 -10 50 -20 80 -23 52 -6 56 -8 62 -37
3 -18 23 -61 43 -98 l37 -65 -21 -40 c-57 -114 16 -232 136 -218 57 6 96 42
113 104 25 89 -43 173 -138 173 l-46 0 -43 88 c-46 98 -50 118 -24 126 9 3 32
28 51 56 37 54 45 112 28 193 -6 28 -5 37 5 37 7 0 67 24 134 54 l121 53 11
-41 c19 -73 110 -146 181 -146 26 0 29 -6 65 -117 20 -65 36 -122 36 -127 0
-5 -17 -24 -39 -42 -51 -44 -65 -96 -45 -164 15 -51 41 -78 94 -100 50 -21
132 9 170 62 68 93 10 238 -94 238 -31 0 -34 7 -66 135 -12 50 -26 94 -31 100
-13 14 -11 35 4 35 43 0 137 115 137 168 0 26 26 29 94 11 298 -78 377 -92
391 -69 10 16 -37 37 -140 59 -55 12 -116 26 -135 31 -90 24 -164 40 -185 40
-16 0 -28 10 -39 33 -9 17 -24 42 -35 54 -26 31 -91 73 -112 73 -11 0 -19 7
-19 16 0 16 21 106 26 112 8 11 175 -81 210 -116 62 -61 96 -74 209 -82 55 -4
111 -12 125 -18 14 -6 59 -20 100 -33 233 -69 364 -142 457 -256 36 -44 37
-46 18 -57 -11 -6 -42 -32 -69 -58 -27 -27 -53 -48 -57 -48 -18 0 -139 89
-130 95 17 10 13 94 -6 126 -10 16 -37 39 -60 50 -94 45 -183 -14 -183 -122 0
-89 102 -155 183 -118 20 9 34 4 101 -38 63 -40 76 -52 71 -68 -3 -11 -9 -47
-12 -80 -5 -60 -5 -60 56 -152 73 -110 115 -143 183 -143 41 0 54 5 85 33 48
45 47 87 -2 169 l-35 59 26 35 c15 19 31 34 38 34 11 0 68 -112 82 -160 3 -14
10 -29 14 -35 15 -19 43 -172 36 -199 -5 -21 -12 -26 -36 -26 -24 0 -31 5 -36
28 -9 36 -42 82 -59 82 -7 0 -23 -12 -34 -26 -22 -28 -21 -33 24 -128 14 -29
25 -59 25 -67 0 -8 -23 -21 -53 -31 -70 -23 -70 -23 -52 12 19 36 14 58 -22
100 -75 90 -214 -32 -142 -124 12 -15 20 -28 18 -30 -2 -2 -40 -7 -84 -13 -95
-12 -105 -6 -105 67 0 38 5 51 30 75 89 85 75 197 -29 236 -109 40 -200 -32
-188 -147 7 -66 29 -97 88 -120 46 -17 47 -19 52 -68 3 -28 3 -52 2 -54 -10
-11 -549 -42 -620 -36 -114 10 -324 63 -391 98 -45 23 -62 27 -140 26 -135 -2
-226 7 -263 26 -26 13 -50 15 -119 10 -48 -3 -125 -5 -172 -5 -79 0 -87 2
-115 28 -58 53 -101 71 -174 71 -135 0 -231 -88 -231 -211 0 -27 -10 -29 -72
-20 -5 1 -8 11 -8 22 0 34 -39 88 -84 117 -58 36 -160 37 -226 2 -61 -34 -100
-92 -107 -162 -10 -95 26 -169 105 -219 38 -24 57 -29 109 -29 53 0 63 -3 63
-18 0 -9 14 -55 30 -102 17 -47 30 -86 30 -87 0 -1 -16 -10 -35 -19 -34 -16
-88 -69 -97 -96 -3 -9 -16 -3 -42 20 -20 17 -64 46 -96 62 -65 33 -64 31 -51
78 15 52 2 100 -37 138 -31 30 -41 34 -88 34 -45 0 -59 -5 -86 -29 -27 -24
-32 -36 -36 -87 -3 -50 0 -64 20 -94 30 -44 80 -59 141 -43 38 11 44 9 77 -16
19 -15 66 -45 103 -67 l68 -39 -3 -57 c-3 -32 -7 -60 -10 -63 -5 -5 -147 -59
-191 -72 -10 -3 -27 3 -40 15 -12 11 -41 29 -64 41 -106 53 -248 -4 -286 -114
-12 -35 -19 -41 -53 -47 -21 -4 -96 -7 -165 -7 l-126 -1 -6 48 c-10 84 -60
158 -122 182 -22 8 -26 15 -21 33 4 12 14 52 22 88 l16 67 64 7 c56 6 71 12
116 49 l52 43 110 -29 c61 -16 121 -36 135 -46 13 -9 30 -21 38 -27 21 -15 55
29 44 58 -7 18 -19 23 -67 29 -33 4 -88 16 -123 27 -35 12 -77 21 -93 21 -28
0 -30 2 -24 28 17 66 16 81 -3 152 -13 50 -16 76 -9 79 14 5 40 31 61 62 15
21 25 24 81 25 70 1 98 16 136 71 19 28 22 43 19 105 -3 68 -1 76 26 115 29
40 32 42 82 43 43 0 58 5 86 29 18 17 40 48 47 71 12 37 12 45 -8 84 -33 69
-93 91 -166 61 -67 -28 -93 -103 -61 -179 15 -35 14 -37 -16 -78 l-31 -43 -79
0 c-77 0 -79 -1 -115 -36 -45 -45 -54 -97 -29 -168 l18 -49 -31 -27 c-17 -14
-34 -35 -37 -45 -8 -25 -20 -25 -56 0 -43 31 -126 53 -173 46 -23 -4 -65 -18
-94 -33 l-54 -25 -49 48 c-52 51 -59 76 -31 107 14 15 17 38 17 116 l0 98 -38
47 c-51 61 -106 86 -194 86 -50 0 -79 -6 -107 -21 -21 -11 -44 -18 -51 -16
-18 8 -135 156 -135 172 0 8 10 33 21 55 18 35 21 53 17 130 -2 51 0 90 5 90
5 0 26 14 47 30 42 33 55 37 67 16 13 -21 69 -46 106 -46 45 0 114 50 134 97
24 58 10 119 -38 167 l-40 39 37 109 37 108 60 0 c47 0 71 6 116 30 114 61
149 181 88 301 -27 55 -62 81 -159 118 -30 11 -42 48 -42 140 -1 52 1 55 34
73 19 11 39 24 44 28 5 5 19 -4 31 -19 29 -34 168 -141 184 -141 14 0 15 -17
1 -25 -18 -11 -12 -137 9 -178 28 -54 41 -68 86 -88 134 -61 295 27 295 162 0
92 -51 165 -142 202 l-38 16 37 61 c27 46 40 59 52 54 118 -48 235 -15 289 84
13 23 26 42 28 42 3 0 26 -17 52 -39z m-1660 -370 c20 -16 56 -32 80 -36 32
-5 43 -12 46 -28 2 -12 11 -57 20 -100 24 -116 23 -123 -21 -137 -21 -7 -50
-23 -64 -36 l-26 -25 -35 33 c-19 18 -67 53 -106 78 l-71 45 -1 72 0 71 48 18
c53 20 82 41 82 61 0 19 7 17 48 -16z m2676 -24 c57 -46 135 -99 176 -120 32
-17 49 -18 200 -10 91 5 181 6 200 2 19 -4 74 -15 121 -25 80 -15 87 -19 103
-49 34 -62 79 -96 137 -104 l54 -6 -3 -40 c-6 -96 -9 -102 -61 -120 l-49 -16
-55 38 c-53 36 -56 40 -57 81 0 94 -80 158 -162 131 -62 -20 -88 -59 -88 -129
0 -32 4 -61 10 -65 5 -3 18 -19 30 -34 l20 -29 -40 -44 c-60 -65 -67 -118 -15
-118 20 0 29 8 41 35 7 19 14 43 14 53 0 25 39 60 102 92 l51 26 51 -34 c28
-19 51 -37 50 -41 -1 -17 -18 -69 -30 -93 -10 -18 -31 -33 -71 -48 -32 -12
-99 -42 -150 -68 -84 -42 -94 -45 -110 -31 -22 19 -101 49 -129 49 -18 0 -22
8 -27 60 -4 33 -9 71 -13 85 -5 19 0 26 26 40 68 35 93 174 40 230 -50 54
-144 71 -201 38 -15 -9 -30 -15 -33 -12 -2 2 -20 37 -41 78 -32 65 -60 107
-138 207 -27 35 -2 30 47 -9z m-450 -132 c107 -33 187 -102 234 -204 23 -47
27 -70 26 -146 0 -78 -3 -97 -26 -141 -38 -73 -71 -108 -136 -147 -79 -47
-163 -63 -244 -47 -128 25 -214 91 -270 209 -27 57 -32 77 -32 146 0 66 4 90
25 135 27 58 92 133 144 165 69 43 192 56 279 30z m-3904 -1206 c47 -39 93
-77 103 -85 13 -10 17 -23 13 -37 -3 -12 -6 -50 -6 -84 l0 -61 -47 -23 c-25
-12 -55 -31 -65 -41 -19 -19 -20 -19 -71 6 -28 14 -60 26 -71 26 -38 0 -46 15
-56 111 -5 51 -14 116 -19 144 -5 27 -8 52 -5 56 2 3 25 14 51 24 26 10 52 22
58 26 17 16 31 9 115 -62z m1930 4 c30 -36 64 -72 76 -79 l21 -14 -24 -49
c-32 -63 -33 -152 -4 -209 12 -23 21 -45 21 -49 0 -5 -17 -29 -37 -53 l-38
-45 -57 20 c-54 18 -59 18 -93 2 -92 -44 -102 -177 -17 -227 95 -56 185 1 187
119 0 53 3 59 45 99 47 47 64 49 109 13 l24 -18 -9 -139 -9 -138 -38 -9 c-44
-11 -104 -65 -109 -99 -3 -23 -6 -23 -145 -26 l-143 -3 -11 28 c-41 106 -97
154 -190 161 -67 5 -110 -12 -163 -65 -29 -30 -37 -33 -42 -19 -6 16 -148 107
-198 126 -25 9 -27 14 -20 38 4 15 9 56 9 92 2 60 4 66 29 78 15 8 49 34 74
59 44 42 49 44 78 34 56 -20 115 -10 153 26 41 39 64 115 42 139 -5 5 -11 23
-15 39 -5 27 3 39 77 116 l82 86 85 -5 c72 -4 92 -1 125 16 22 11 47 20 55 20
8 1 40 -29 70 -65z m-1765 -336 c19 -19 52 -39 73 -46 l38 -13 12 -91 c17
-129 17 -134 -17 -152 -42 -21 -82 -77 -88 -124 -4 -25 1 -58 13 -90 l18 -51
-40 -43 c-23 -23 -52 -55 -67 -71 -25 -29 -26 -29 -52 -12 -14 9 -48 20 -75
23 -28 3 -54 11 -60 18 -5 6 -15 47 -20 91 -6 43 -15 93 -20 109 -5 17 -12 51
-16 78 -6 44 -5 47 16 47 38 0 106 64 124 117 20 58 20 81 1 127 l-15 36 52
26 c28 14 58 32 66 40 18 19 18 19 57 -19z m320 3 c7 -11 194 -140 204 -140 3
0 6 -35 6 -77 0 -112 24 -141 161 -193 20 -8 22 -18 29 -137 3 -70 9 -136 11
-145 4 -12 0 -18 -12 -18 -10 0 -37 -10 -61 -21 -24 -12 -45 -20 -47 -18 -32
45 -62 80 -137 156 -110 111 -114 130 -34 178 83 50 100 64 90 74 -13 13 -125
-37 -125 -55 0 -27 -26 -14 -43 21 -19 39 -80 82 -134 93 l-38 8 -11 104 c-6
58 -10 108 -8 112 2 3 17 9 33 13 15 3 43 17 62 30 38 27 45 29 54 15z m1970
-294 c-16 -57 -16 -74 -6 -120 15 -66 56 -126 112 -163 l41 -27 -6 -51 c-4
-27 -12 -67 -18 -87 -10 -36 -14 -38 -51 -38 -83 0 -177 -81 -193 -167 -3 -18
-3 -58 0 -87 6 -46 14 -61 51 -100 48 -51 45 -55 -17 -27 -24 11 -50 22 -59
25 -11 3 -20 24 -28 66 -14 85 -46 124 -114 144 -47 14 -58 14 -101 1 -59 -18
-72 -28 -97 -76 -28 -55 -25 -133 6 -188 14 -23 25 -44 25 -46 0 -1 -37 0 -83
2 -70 5 -89 2 -122 -15 -41 -21 -69 -48 -98 -94 -19 -31 -24 -147 -7 -178 13
-24 -5 -43 -79 -79 -76 -37 -121 -64 -121 -73 0 -18 -22 -6 -50 26 -17 19 -48
41 -70 50 -44 17 -45 21 -29 63 13 35 36 117 58 208 15 63 20 71 46 79 54 16
71 27 89 58 33 56 16 133 -39 177 -22 16 -24 23 -16 40 6 11 11 50 11 86 0 79
10 100 49 108 39 8 131 96 131 125 0 11 5 24 11 28 6 4 74 7 150 8 130 1 139
0 139 -18 0 -18 33 -79 55 -102 23 -24 76 -44 115 -44 118 0 206 117 170 225
-14 42 -86 115 -114 115 -18 0 -19 5 -12 92 3 50 6 113 6 140 0 46 1 48 28 48
27 0 115 29 129 43 4 4 34 -19 66 -52 l60 -59 -18 -66z m-1410 -66 c8 -13 171
-121 203 -135 20 -9 23 -18 27 -80 2 -38 6 -83 10 -100 6 -28 3 -31 -37 -50
-24 -11 -59 -34 -79 -52 l-36 -32 -27 28 c-23 24 -87 59 -138 75 -17 5 -19 22
-33 212 l-6 80 48 31 c54 35 59 37 68 23z m-503 -199 c4 -14 146 -158 181
-185 l29 -23 -26 -39 c-14 -21 -31 -54 -37 -73 -12 -33 -12 -33 -63 -27 -28 3
-139 6 -247 6 l-196 0 -18 65 c-9 35 -23 69 -31 76 -8 6 -14 14 -14 18 0 4 29
37 65 73 64 66 65 67 92 52 37 -18 127 -18 168 2 18 8 43 26 56 40 24 26 35
30 41 15z m3801 -88 c14 -13 37 -18 89 -19 70 0 71 0 87 -35 9 -20 37 -48 66
-67 28 -18 77 -59 110 -91 34 -32 71 -62 83 -65 13 -4 25 -19 28 -34 14 -59
43 -91 97 -107 28 -8 59 -15 69 -15 10 0 41 -18 69 -40 28 -22 73 -51 100 -65
28 -14 150 -85 272 -157 121 -73 236 -141 254 -151 46 -26 41 -37 -17 -37 -40
0 -59 6 -91 30 -57 41 -100 47 -166 25 -53 -18 -58 -18 -191 0 -80 11 -172 30
-222 47 -47 16 -93 32 -104 35 -10 3 -37 17 -60 29 -101 58 -128 66 -216 67
-81 0 -86 1 -118 31 -62 59 -109 77 -192 75 l-75 -2 -33 59 c-18 32 -45 76
-60 97 -17 26 -23 43 -16 51 35 49 64 98 64 112 0 12 4 14 13 6 20 -16 179
-82 197 -82 14 0 19 -12 22 -51 6 -59 31 -97 79 -121 46 -23 71 -22 115 4 l37
22 19 -27 c28 -39 115 -97 144 -97 38 0 27 17 -57 87 l-74 63 3 67 c3 58 0 73
-18 95 -42 54 -146 60 -203 12 -29 -24 -47 -31 -47 -16 0 4 -39 22 -87 41 -49
18 -98 37 -110 42 -17 6 -23 17 -24 41 0 18 -3 45 -5 61 -4 25 1 30 63 61 82
40 82 40 106 19z m-3002 -99 c10 -9 35 -22 56 -29 36 -12 38 -15 41 -62 1 -26
-1 -73 -5 -103 -8 -50 -10 -55 -39 -61 -90 -18 -120 -145 -50 -218 27 -29 29
-13 -24 -206 -13 -44 -25 -91 -28 -105 -7 -38 -19 -47 -65 -54 -76 -12 -167
-118 -167 -196 0 -11 -4 -20 -10 -20 -5 0 -10 7 -10 16 0 13 -13 15 -83 13
-45 -2 -87 0 -94 4 -6 4 -14 22 -17 41 -8 40 -40 68 -101 85 -117 35 -205 -87
-146 -202 l19 -37 -42 -63 c-22 -35 -61 -100 -85 -144 l-43 -81 -71 0 c-40 0
-85 -5 -101 -12 -29 -10 -70 -49 -91 -83 -9 -15 -15 -15 -77 3 -37 10 -100 24
-140 31 l-73 12 -2 53 c-1 29 -8 65 -16 81 -15 28 -14 29 67 118 44 50 95 107
112 128 32 39 32 39 62 23 120 -62 276 59 259 202 l-5 47 136 135 c76 74 168
168 206 209 l69 74 31 -13 c17 -8 65 -15 107 -18 63 -3 84 0 116 17 51 25 107
88 123 136 12 37 10 144 -4 176 -6 13 7 23 58 47 36 17 71 40 78 51 15 25 26
26 49 5z m2389 -168 c0 -19 70 -86 112 -107 43 -22 127 -27 171 -10 41 16 43
15 67 -31 12 -24 38 -66 56 -94 19 -28 34 -54 34 -57 0 -4 -11 -14 -24 -22
-26 -17 -45 -14 -151 30 -93 38 -112 50 -151 94 l-41 46 -69 0 c-77 0 -107
-16 -151 -80 -19 -29 -27 -33 -46 -26 -16 6 -21 15 -18 32 2 13 3 60 2 105 l0
80 80 24 c44 14 85 30 91 37 12 15 38 0 38 -21z m-3038 -79 c4 -21 19 -57 32
-80 l25 -42 -172 -175 c-230 -234 -233 -236 -255 -218 -31 28 -67 42 -117 48
-49 5 -50 5 -57 46 -3 23 -25 96 -47 162 -23 66 -41 124 -41 129 0 5 20 30 44
55 24 25 49 62 56 82 l12 36 256 -2 256 -3 8 -38z m-790 -137 c31 -6 56 -7 73
0 19 7 27 6 29 -3 3 -6 27 -83 55 -169 54 -166 58 -188 39 -188 -16 0 -78 -61
-78 -77 0 -17 -12 -16 -52 4 -53 27 -59 29 -138 49 -41 10 -78 23 -82 29 -4 5
-8 28 -8 50 0 22 -11 64 -25 93 -14 30 -25 58 -25 63 0 4 24 34 53 65 28 31
59 67 67 80 8 14 21 22 30 19 8 -2 36 -9 62 -15z m-767 -204 c22 -8 66 -22 98
-32 l57 -18 0 -71 c0 -47 5 -78 15 -91 8 -10 14 -26 15 -34 0 -15 -61 -83
-222 -247 l-90 -93 -26 20 c-13 11 -33 20 -43 20 -44 0 -49 9 -48 84 0 39 6
136 12 216 11 132 14 145 32 148 41 7 86 34 117 72 18 22 35 40 38 40 2 0 22
-6 45 -14z m3056 -80 c15 -13 34 -26 41 -29 17 -7 -27 -47 -52 -47 -21 0 -30
19 -30 66 0 40 3 41 41 10z m-2409 -136 c24 -10 83 -32 133 -47 l89 -28 12
-63 c6 -34 16 -68 22 -74 8 -8 2 -21 -22 -47 -62 -67 -131 -146 -158 -181
l-27 -34 -48 17 c-26 9 -63 17 -80 17 -23 0 -33 5 -33 15 0 8 -12 54 -26 102
-59 197 -64 233 -34 233 21 0 110 81 110 100 0 15 14 12 62 -10z m-358 -95
c27 -14 64 -25 81 -25 31 0 32 -2 47 -67 9 -38 28 -114 43 -171 l27 -104 -30
-31 c-39 -41 -62 -88 -62 -126 0 -42 32 -111 67 -146 l31 -30 -29 -55 c-15
-30 -33 -66 -39 -79 -6 -13 -20 -36 -31 -52 -19 -28 -21 -28 -49 -14 -53 27
-173 17 -210 -17 -11 -11 -25 -18 -30 -16 -5 2 -61 67 -124 146 l-115 143 21
21 c11 11 31 45 45 75 22 47 25 64 19 116 -3 33 -15 74 -25 91 l-20 31 162
167 c89 92 164 167 167 168 3 0 27 -11 54 -25z m1649 -204 c9 -20 17 -45 17
-53 0 -14 -46 -81 -165 -243 -21 -27 -26 -29 -91 -30 -89 0 -125 -23 -149 -95
-16 -49 -16 -51 8 -104 14 -30 35 -60 47 -66 19 -10 20 -14 7 -28 -20 -24
-117 -222 -117 -240 0 -11 -10 -13 -47 -8 -104 14 -98 10 -127 95 -14 43 -26
83 -26 88 0 5 13 17 30 26 35 21 76 87 85 137 7 40 -32 142 -61 158 -16 9 -16
12 7 39 14 16 58 84 98 151 70 115 74 120 98 111 47 -18 124 17 152 69 10 19
21 22 109 25 53 1 99 4 102 5 3 1 13 -16 23 -37z m107 -128 c17 -12 46 -18 95
-19 l70 -1 82 -101 81 -100 -15 -44 c-18 -51 -12 -134 11 -171 16 -23 14 -28
-39 -136 -30 -61 -55 -115 -55 -120 0 -5 -31 -11 -69 -15 -46 -5 -78 -14 -95
-27 l-24 -19 -22 27 c-12 16 -50 60 -85 98 -113 127 -165 190 -165 203 0 7 8
24 17 38 17 27 14 54 -17 130 -13 29 -11 33 74 142 47 62 86 117 86 122 0 16
43 11 70 -7z m-1109 -329 l87 -18 10 -66 c10 -60 15 -68 60 -109 l50 -45 -59
-120 c-33 -65 -63 -124 -67 -130 -5 -6 -23 -46 -42 -88 l-33 -78 -74 0 c-82 0
-136 -21 -171 -65 -21 -27 -32 -32 -32 -14 0 14 -9 22 -132 105 -105 70 -108
77 -83 137 22 53 18 106 -11 166 -24 47 -25 54 -11 69 17 19 95 158 104 185 4
12 16 17 44 17 54 0 98 20 136 63 l32 35 53 -13 c29 -7 92 -21 139 -31z m909
-229 c203 -218 217 -235 192 -235 -5 0 -19 -24 -31 -52 -20 -45 -22 -64 -18
-122 4 -38 11 -74 17 -80 21 -21 8 -44 -71 -131 -44 -50 -92 -107 -107 -127
-31 -43 -35 -44 -87 -22 -21 8 -59 14 -84 13 -51 -3 -71 5 -71 26 0 8 -25 67
-55 131 l-55 116 35 41 c32 37 35 46 35 103 0 40 -6 73 -17 92 -17 30 -16 37
17 87 11 17 41 72 66 123 26 51 51 95 57 99 15 9 70 22 87 20 8 -1 49 -38 90
-82z m953 -101 c-1 -16 -5 -47 -8 -69 -6 -45 1 -42 -170 -83 -45 -11 -99 -27
-120 -36 -37 -16 -40 -16 -52 1 -43 64 -63 85 -101 109 l-42 27 21 31 c11 17
37 66 57 108 31 66 40 77 57 72 52 -15 123 -16 150 -1 28 14 30 14 119 -58 79
-63 91 -76 89 -101z m-1542 31 c11 -27 26 -64 35 -82 17 -32 17 -32 -19 -69
-40 -42 -53 -90 -42 -159 l6 -44 -63 -32 c-35 -17 -73 -40 -85 -51 l-22 -20
-44 45 -45 45 40 68 c22 38 72 133 110 212 59 120 73 143 90 140 14 -2 26 -19
39 -53z m1544 -204 c3 -10 19 -38 36 -61 31 -43 113 -90 156 -90 24 0 29 -12
36 -83 3 -35 0 -39 -38 -62 -65 -38 -95 -89 -95 -162 0 -34 5 -74 11 -90 10
-26 6 -31 -82 -115 -50 -49 -95 -88 -100 -88 -5 0 -24 9 -44 20 -19 11 -62 23
-95 27 l-61 8 -33 75 c-18 41 -56 123 -85 182 -55 115 -58 126 -36 134 8 3 30
30 49 59 26 39 37 68 43 115 l8 63 90 23 c50 12 117 31 150 42 77 26 82 26 90
3z m-1524 -187 c21 -26 66 -44 108 -44 l40 0 47 -97 c25 -54 50 -107 55 -118
5 -11 15 -28 21 -38 11 -15 10 -20 -7 -29 -25 -14 -88 -77 -102 -101 -9 -17
-14 -16 -84 16 -202 94 -253 117 -264 117 -20 0 -25 26 -13 61 6 17 8 57 5 89
-5 55 -4 59 19 64 33 9 144 75 144 86 0 15 16 12 31 -6z m798 -118 c17 -20
127 -48 177 -44 42 3 46 1 64 -32 20 -36 160 -322 160 -327 0 -1 -24 -18 -53
-36 -36 -24 -60 -48 -77 -81 -24 -45 -26 -47 -60 -41 -19 3 -53 12 -75 20 -66
22 -138 42 -218 62 l-75 18 -7 55 c-8 60 -35 129 -60 150 -23 19 -19 29 38 89
61 65 141 159 145 172 5 14 28 11 41 -5z m997 -346 c35 0 70 7 96 20 23 11 50
18 60 14 10 -3 48 -40 84 -82 37 -42 71 -78 76 -80 12 -5 10 -29 -5 -44 -25
-27 -46 -66 -52 -102 l-7 -36 -258 0 -258 0 -7 53 c-4 28 -13 65 -21 81 -18
37 -18 53 0 63 8 4 49 41 91 81 l77 73 35 -21 c23 -13 52 -20 89 -20z m-1036
-199 c19 -5 58 -15 85 -24 28 -8 77 -23 110 -32 33 -9 66 -18 73 -21 7 -2 12
-21 12 -46 0 -26 10 -63 25 -92 14 -27 25 -51 25 -52 0 -1 -43 -49 -96 -106
-53 -57 -108 -120 -122 -141 -24 -33 -30 -37 -57 -31 -16 3 -61 9 -100 13 -59
5 -70 9 -74 26 -2 11 -37 103 -78 204 -71 178 -79 211 -50 211 16 0 68 54 92
96 l18 31 51 -14 c28 -8 67 -18 86 -22z"/>
<path d="M4952 9610 c-19 -31 -14 -58 13 -76 38 -25 75 -6 75 39 0 18 -5 38
-12 45 -19 19 -62 14 -76 -8z"/>
<path d="M5702 9234 c-43 -30 -19 -93 36 -94 37 0 55 65 26 94 -19 20 -34 20
-62 0z"/>
<path d="M4937 8936 c-46 -17 -61 -29 -88 -73 -46 -74 -6 -191 79 -231 l36
-17 -2 -130 c-3 -143 -7 -165 -26 -165 -30 0 -106 -42 -134 -74 -29 -33 -62
-121 -62 -165 0 -28 29 -100 53 -131 10 -14 40 -39 65 -57 40 -28 56 -32 108
-33 105 0 174 41 221 133 19 38 28 47 41 42 9 -4 62 -16 117 -26 55 -11 134
-29 176 -39 42 -11 84 -20 92 -20 9 0 41 -12 72 -26 64 -31 85 -27 85 15 0 33
-3 34 -85 45 -22 3 -67 12 -100 19 -141 33 -293 66 -332 72 -38 6 -43 10 -43
33 -1 37 -35 111 -68 145 -30 32 -92 67 -118 67 -15 0 -16 9 -11 83 4 45 7
112 7 148 l0 67 38 15 c77 31 120 121 95 198 -19 56 -38 77 -88 100 -47 22
-77 23 -128 5z"/>
<path d="M5663 8262 c-7 -4 -15 -22 -19 -39 -5 -25 -1 -34 21 -52 34 -26 57
-27 80 -1 23 25 23 70 -1 87 -20 14 -62 17 -81 5z"/>
<path d="M4511 7838 c-40 -41 -44 -103 -8 -135 57 -52 94 -55 144 -10 31 29
36 40 36 77 0 36 -6 48 -32 72 -45 40 -98 39 -140 -4z"/>
<path d="M5216 7368 c-22 -32 -20 -64 6 -82 32 -23 54 -20 77 10 27 34 27 59
-1 78 -32 22 -64 20 -82 -6z"/>
<path d="M7095 8462 c-55 -18 -85 -62 -85 -124 0 -47 56 -98 108 -98 68 0 116
53 114 125 -3 66 -75 117 -137 97z"/>
<path d="M6806 8259 c-55 -9 -96 -56 -96 -109 0 -88 47 -140 126 -140 70 0
134 66 125 130 -4 29 -36 96 -51 105 -24 15 -67 21 -104 14z"/>
<path d="M7245 8195 c-38 -37 -35 -98 6 -136 35 -33 52 -35 102 -14 47 19 61
46 52 100 -7 52 -36 75 -95 75 -30 0 -47 -7 -65 -25z"/>
<path d="M6983 8010 c-53 -23 -83 -70 -83 -127 0 -35 6 -49 38 -82 44 -47 80
-58 133 -42 50 15 99 78 99 129 0 45 -35 101 -74 117 -58 24 -71 24 -113 5z"/>
<path d="M7334 7894 c-17 -8 -41 -32 -52 -53 -38 -67 -26 -126 38 -186 27 -26
38 -30 90 -30 52 0 63 4 91 30 78 74 77 177 -4 233 -40 26 -116 30 -163 6z"/>
<path d="M9911 7874 c-27 -35 -27 -65 2 -92 35 -32 69 -37 100 -12 37 29 37
80 1 109 -37 29 -78 27 -103 -5z"/>
<path d="M6653 7813 c-28 -19 -29 -44 -5 -66 32 -29 59 -20 75 26 4 11 -1 25
-13 37 -24 24 -28 24 -57 3z"/>
<path d="M9336 7768 c-41 -41 -52 -93 -32 -142 18 -43 54 -67 111 -74 55 -6
87 13 115 69 27 53 19 100 -27 145 -29 30 -40 34 -84 34 -44 0 -55 -4 -83 -32z"/>
<path d="M10166 7784 c-45 -16 -71 -43 -87 -91 -14 -44 3 -117 38 -154 l24
-26 -78 -72 c-63 -58 -75 -73 -63 -81 28 -18 44 -10 111 60 37 39 73 70 81 70
7 0 27 -25 43 -56 33 -61 55 -79 85 -69 31 10 24 37 -20 80 -22 21 -40 44 -40
49 0 6 19 30 43 54 41 41 42 45 42 107 0 54 -4 67 -25 90 -24 26 -81 56 -104
54 -6 0 -28 -7 -50 -15z"/>
<path d="M6483 7680 c-50 -21 -56 -77 -11 -115 48 -40 101 -22 114 41 10 53
-49 96 -103 74z"/>
<path d="M6785 7683 c-27 -7 -54 -32 -71 -65 -42 -81 22 -178 118 -178 37 0
49 5 77 34 56 58 52 156 -9 194 -23 14 -87 23 -115 15z"/>
<path d="M10457 7622 c-32 -35 -15 -82 28 -82 46 0 62 57 23 84 -28 20 -31 20
-51 -2z"/>
<path d="M7125 7599 c-46 -16 -70 -55 -70 -116 0 -46 4 -57 33 -85 29 -29 39
-33 88 -33 51 0 58 3 90 37 29 32 34 45 34 86 0 41 -5 53 -32 80 -37 35 -94
47 -143 31z"/>
<path d="M8794 7404 c-25 -26 -34 -45 -34 -70 0 -19 4 -34 9 -34 5 0 12 -8 16
-19 3 -10 20 -26 39 -36 41 -22 78 -15 117 25 64 64 18 170 -73 170 -34 0 -47
-6 -74 -36z"/>
<path d="M9507 7324 c-23 -7 -47 -55 -47 -94 0 -42 41 -80 87 -80 44 0 93 48
93 90 0 57 -70 101 -133 84z"/>
<path d="M6910 7291 c-51 -51 -52 -106 -2 -163 56 -61 162 -36 189 45 27 80
-23 147 -109 147 -41 0 -54 -5 -78 -29z"/>
<path d="M9829 7231 c-23 -23 -29 -38 -29 -71 0 -52 11 -73 54 -99 48 -30 80
-27 123 12 31 29 36 40 36 79 0 49 -25 93 -58 102 -52 14 -96 6 -126 -23z"/>
<path d="M10183 7198 c-44 -49 -40 -101 11 -136 44 -30 76 -28 111 8 59 62 21
150 -64 150 -26 0 -44 -7 -58 -22z"/>
<path d="M7649 7163 c-25 -6 -41 -45 -37 -89 3 -33 8 -42 39 -58 46 -25 83
-16 109 27 27 44 25 63 -9 98 -28 28 -57 34 -102 22z"/>
<path d="M7409 6889 c-58 -62 -30 -157 52 -179 73 -20 128 18 137 95 4 42 2
48 -32 80 -31 29 -45 35 -83 35 -37 0 -50 -5 -74 -31z"/>
<path d="M7213 6411 c-50 -23 -63 -45 -63 -106 0 -40 5 -52 34 -81 91 -91 224
15 176 140 -9 24 -41 46 -85 59 -11 4 -39 -2 -62 -12z"/>
<path d="M5974 7296 c-33 -15 -64 -67 -64 -109 0 -32 39 -89 74 -105 59 -29
133 8 156 78 12 36 11 45 -3 75 -19 40 -70 75 -107 75 -14 -1 -39 -7 -56 -14z"/>
<path d="M5750 6971 c-27 -51 3 -101 60 -101 37 0 50 12 57 53 8 50 -9 67 -63
67 -33 0 -46 -5 -54 -19z"/>
<path d="M6051 6286 c-95 -53 -47 -226 63 -226 30 0 87 39 103 70 52 102 -65
212 -166 156z"/>
<path d="M9124 5866 c-16 -63 17 -102 64 -76 19 11 28 25 30 49 4 39 -9 51
-55 51 -26 0 -34 -5 -39 -24z"/>
<path d="M9395 5822 c-50 -44 -57 -91 -20 -127 72 -72 186 21 128 105 -9 14
-22 28 -27 32 -19 13 -60 8 -81 -10z"/>
<path d="M5116 5725 c-22 -34 -20 -68 7 -92 39 -37 64 -38 97 -4 35 35 38 59
9 95 -28 36 -89 37 -113 1z"/>
<path d="M4670 5980 c-11 -11 -20 -28 -20 -38 0 -46 79 -71 100 -33 16 31 12
59 -12 75 -30 21 -44 20 -68 -4z"/>
<path d="M5490 4790 c-16 -30 -5 -64 25 -80 32 -17 56 -5 70 34 13 38 -4 60
-48 64 -28 2 -38 -1 -47 -18z"/>
<path d="M4160 4520 c-38 -38 -16 -93 38 -93 63 0 84 54 36 92 -33 26 -49 26
-74 1z"/>
<path d="M5161 4244 c-26 -33 -27 -56 -3 -76 30 -27 56 -30 80 -8 28 26 28 64
0 90 -29 27 -52 25 -77 -6z"/>
<path d="M6083 4052 c-21 -13 -34 -61 -23 -82 26 -49 84 -50 113 -1 22 37 21
42 -3 69 -21 22 -64 29 -87 14z"/>
<path d="M7411 9811 c-26 -37 -26 -43 2 -69 30 -29 71 -28 91 0 21 30 20 54
-4 78 -29 29 -65 25 -89 -9z"/>
<path d="M3074 9600 c-29 -12 -64 -71 -64 -109 0 -18 9 -49 19 -69 55 -109
224 -80 246 42 8 39 -22 105 -57 130 -24 17 -108 21 -144 6z"/>
<path d="M3863 9158 c-76 -25 -112 -112 -79 -190 42 -99 212 -87 246 17 24 72
-17 150 -89 174 -38 12 -35 12 -78 -1z"/>
<path d="M2353 9105 c-26 -18 -38 -67 -23 -94 28 -53 88 -63 130 -21 64 64
-33 167 -107 115z"/>
<path d="M2880 8794 c-105 -89 -54 -254 79 -254 93 0 157 58 155 141 0 51 -16
79 -65 115 -48 35 -126 34 -169 -2z"/>
<path d="M2572 8193 c-13 -10 -25 -34 -28 -55 -12 -74 77 -117 131 -63 31 30
34 84 6 109 -29 27 -82 31 -109 9z"/>
<path d="M2176 8171 c-24 -27 -17 -70 16 -94 24 -18 30 -19 58 -7 51 21 60 83
16 112 -21 15 -73 8 -90 -11z"/>
<path d="M3227 8140 c-48 -38 -43 -107 10 -129 37 -15 75 -2 99 33 22 35 11
72 -29 96 -40 25 -48 25 -80 0z"/>
<path d="M2694 7391 c-64 -29 -84 -61 -79 -129 4 -50 9 -61 39 -89 30 -28 43
-33 84 -33 86 0 142 54 142 137 0 53 -44 108 -98 123 -46 12 -39 13 -88 -9z"/>
<path d="M1287 7247 c-10 -6 -20 -29 -23 -49 -6 -31 -2 -40 21 -62 36 -33 62
-33 97 1 33 32 37 74 8 103 -23 23 -77 27 -103 7z"/>
<path d="M3349 7033 c-20 -5 -42 -45 -37 -68 1 -10 15 -27 29 -37 21 -16 30
-17 51 -8 37 17 49 49 32 83 -8 15 -19 27 -24 27 -4 0 -14 2 -22 4 -7 2 -20 2
-29 -1z"/>
<path d="M1953 6888 c-39 -19 -45 -93 -10 -126 39 -37 98 -28 122 19 21 40 19
66 -10 94 -26 27 -64 31 -102 13z"/>
<path d="M2791 6781 c-42 -42 -16 -111 42 -111 33 0 67 32 67 63 0 56 -70 87
-109 48z"/>
<path d="M3740 6785 c-20 -24 -17 -75 6 -92 53 -39 120 15 92 75 -10 21 -21
28 -49 30 -23 2 -40 -2 -49 -13z"/>
<path d="M8374 6785 c-12 -8 -27 -27 -33 -44 -16 -38 5 -83 48 -101 26 -10 35
-10 56 4 49 32 58 94 20 131 -27 28 -61 32 -91 10z"/>
<path d="M3368 6572 c-37 -23 -58 -63 -58 -112 0 -34 6 -48 34 -76 31 -31 40
-34 91 -34 48 0 60 4 84 28 36 35 46 90 27 136 -28 66 -116 95 -178 58z"/>
<path d="M2687 6400 c-45 -14 -67 -46 -67 -100 0 -42 4 -52 35 -79 50 -44 87
-42 136 8 51 50 54 98 10 142 -16 16 -36 29 -44 29 -9 0 -21 2 -29 4 -7 2 -26
0 -41 -4z"/>
<path d="M3748 6239 c-26 -15 -23 -64 4 -83 30 -21 44 -20 68 4 50 50 -10 116
-72 79z"/>
<path d="M1851 6137 c-6 -8 -14 -27 -17 -44 -5 -25 -1 -34 21 -52 35 -26 55
-27 89 0 31 24 35 68 8 92 -22 20 -85 22 -101 4z"/>
<path d="M1070 5978 c-24 -40 -24 -43 -3 -79 30 -51 101 -50 128 1 20 38 19
52 -6 84 -16 20 -29 26 -60 26 -34 0 -42 -5 -59 -32z"/>
<path d="M2800 5521 c-17 -32 -11 -60 15 -77 23 -15 27 -15 50 0 15 10 25 26
25 40 0 48 -69 76 -90 37z"/>
<path d="M1501 5228 c-44 -45 -44 -103 0 -153 27 -31 37 -35 79 -35 57 0 93
25 110 75 26 79 -24 145 -110 145 -40 0 -52 -5 -79 -32z"/>
<path d="M743 4800 c-28 -11 -43 -40 -43 -80 0 -40 41 -80 82 -80 37 0 88 48
88 84 0 54 -74 99 -127 76z"/>
<path d="M1477 4616 c-10 -8 -20 -29 -24 -48 -4 -30 -1 -38 22 -56 33 -27 53
-27 82 -3 36 30 39 66 9 95 -28 29 -61 33 -89 12z"/>
<path d="M2986 4437 c-29 -21 -27 -94 3 -118 52 -42 131 -8 131 57 0 60 -84
98 -134 61z"/>
<path d="M1497 4009 c-23 -13 -47 -62 -47 -94 0 -85 94 -133 170 -88 58 34 68
116 21 164 -25 24 -37 29 -78 29 -26 0 -56 -5 -66 -11z"/>
<path d="M2382 3943 c-35 -30 -38 -68 -8 -97 14 -15 36 -26 49 -26 30 0 67 39
67 72 0 50 -70 83 -108 51z"/>
<path d="M3720 3941 c-17 -32 -12 -60 15 -77 31 -20 53 -15 78 18 19 25 19 28
3 52 -21 33 -80 37 -96 7z"/>
<path d="M6930 3890 c-28 -28 -26 -66 4 -86 58 -37 121 51 64 90 -30 21 -44
20 -68 -4z"/>
<path d="M4026 3504 c-23 -22 -20 -71 3 -84 69 -36 132 40 72 87 -22 17 -57
16 -75 -3z"/>
<path d="M2892 3440 c-41 -66 34 -134 88 -80 24 24 25 48 4 78 -20 29 -74 30
-92 2z"/>
<path d="M4460 3400 c-42 -42 -12 -115 46 -108 35 4 69 48 59 77 -6 20 -51 51
-75 51 -5 0 -19 -9 -30 -20z"/>
<path d="M3624 3241 c-46 -28 -64 -59 -64 -112 0 -58 26 -94 81 -110 80 -25
158 24 166 103 5 52 -11 85 -56 115 -41 28 -86 29 -127 4z"/>
<path d="M7350 3170 c-26 -26 -25 -55 2 -74 36 -25 65 -20 83 15 14 25 14 33
3 47 -30 38 -58 42 -88 12z"/>
<path d="M2235 3148 c-53 -29 -75 -61 -75 -107 0 -93 71 -149 158 -123 75 23
111 125 65 186 -35 47 -105 68 -148 44z"/>
<path d="M6517 3052 c-22 -25 -21 -75 1 -95 57 -52 139 26 91 86 -24 32 -68
36 -92 9z"/>
<path d="M3071 2755 c-31 -40 -35 -80 -14 -123 45 -93 193 -53 193 53 0 63
-36 95 -105 95 -45 0 -57 -4 -74 -25z"/>
<path d="M4130 2620 c-20 -20 -26 -56 -12 -75 4 -5 17 -16 30 -23 20 -11 27
-11 48 3 13 8 27 27 30 42 6 21 2 31 -20 50 -33 28 -50 29 -76 3z"/>
<path d="M5912 1128 l3 -703 158 0 159 0 5 703 6 702 -167 0 -166 0 2 -702z"/>
<path d="M1180 1118 c0 -359 3 -663 6 -675 6 -23 9 -23 165 -23 l159 0 2 218
3 217 51 3 52 3 33 -56 c19 -31 49 -85 67 -118 18 -34 60 -108 94 -165 l62
-102 183 0 c101 0 183 4 183 8 0 5 -13 27 -28 48 -16 21 -31 47 -35 56 -3 10
-54 92 -112 183 -58 91 -105 170 -105 174 0 5 21 20 48 32 57 28 142 111 171
167 69 135 65 310 -11 451 -38 72 -79 115 -149 156 -112 65 -129 68 -501 72
l-338 4 0 -653z m620 327 c82 -43 113 -141 70 -224 -35 -69 -68 -81 -218 -81
-84 0 -133 4 -138 11 -3 6 -3 81 1 166 l7 155 122 -4 c92 -3 129 -9 156 -23z"/>
<path d="M5055 1766 c-5 -2 -37 -12 -70 -22 -86 -25 -171 -78 -241 -148 -106
-108 -153 -212 -179 -397 -31 -222 16 -414 139 -570 195 -249 587 -305 852
-123 74 51 196 198 177 214 -4 3 -33 24 -63 45 -30 22 -79 60 -109 85 -51 43
-54 44 -65 25 -24 -43 -104 -115 -151 -136 -61 -27 -157 -35 -224 -19 -61 14
-137 78 -175 147 -32 56 -56 155 -56 226 0 58 28 175 53 223 19 37 93 106 138
130 50 26 180 24 239 -4 47 -21 122 -86 156 -135 l19 -27 131 67 131 68 -31
57 c-65 121 -174 219 -297 269 -46 18 -78 22 -209 25 -85 2 -159 2 -165 0z"/>
<path d="M8837 1723 c-4 -3 -7 -66 -7 -139 0 -103 -3 -133 -14 -137 -7 -3 -51
-5 -97 -5 l-84 1 -3 -121 -3 -121 43 -5 c24 -4 68 -7 98 -9 l55 -2 6 -260 c3
-143 10 -274 16 -291 13 -37 56 -107 83 -134 11 -11 46 -34 77 -52 57 -32 61
-33 178 -33 107 0 127 3 191 28 l71 27 -18 68 c-31 114 -54 190 -61 197 -3 4
-24 -3 -47 -14 -52 -27 -93 -27 -126 2 -37 32 -44 78 -45 289 0 173 1 188 18
186 9 -1 70 0 135 0 l117 2 0 125 0 125 -130 0 -130 0 0 134 0 134 -31 6 c-42
8 -284 8 -292 -1z"/>
<path d="M2655 1463 c-43 -9 -122 -36 -155 -51 -40 -19 -119 -74 -120 -83 0
-3 25 -39 55 -79 30 -40 55 -76 55 -79 0 -3 7 -14 14 -23 12 -17 17 -16 69 13
60 32 162 48 229 35 55 -10 108 -63 115 -113 l6 -43 -119 0 c-153 0 -268 -20
-352 -62 -82 -41 -123 -91 -147 -183 -21 -77 -13 -141 27 -222 86 -173 353
-218 535 -91 26 18 50 36 51 41 10 21 22 -10 22 -54 l0 -50 153 3 152 3 3 354
c3 393 -1 421 -60 514 -30 47 -90 102 -138 127 -58 30 -165 50 -270 49 -58 -1
-114 -3 -125 -6z m268 -627 c7 -18 -3 -96 -15 -119 -16 -31 -96 -60 -170 -61
-64 -1 -68 0 -97 33 -34 38 -39 66 -15 99 30 43 84 58 220 61 53 1 73 -3 77
-13z"/>
<path d="M3937 1451 c-44 -12 -82 -31 -111 -55 -24 -20 -47 -36 -50 -36 -3 0
-6 20 -6 45 l0 45 -104 0 c-56 0 -130 -3 -162 -6 l-59 -6 1 -668 c1 -367 3
-674 6 -681 4 -11 37 -13 162 -11 l156 3 0 219 c0 121 3 220 6 220 3 0 15 -11
25 -24 57 -73 238 -107 351 -67 170 59 277 192 314 388 16 83 16 106 5 194 -7
55 -22 126 -33 157 -45 121 -146 232 -239 264 -130 45 -157 47 -262 19z m99
-297 c66 -31 114 -124 114 -220 0 -147 -80 -238 -206 -233 -89 4 -149 57 -180
157 -18 60 -18 96 2 161 16 54 72 126 109 141 35 15 125 11 161 -6z"/>
<path d="M7950 1454 c-134 -36 -208 -100 -251 -216 -36 -98 -18 -211 46 -286
48 -55 134 -95 276 -127 193 -43 239 -61 239 -95 0 -25 -29 -46 -85 -60 -87
-21 -245 21 -329 89 -21 17 -42 31 -45 31 -4 0 -21 -19 -39 -41 -17 -23 -52
-63 -77 -90 -25 -26 -45 -54 -45 -61 0 -15 57 -64 124 -106 25 -16 86 -43 134
-58 79 -26 99 -29 222 -28 118 1 143 5 201 26 116 44 189 107 232 201 24 54
23 162 -4 224 -48 113 -123 156 -364 208 -89 19 -164 43 -182 58 -33 25 -3 68
59 85 51 14 187 -10 246 -43 24 -14 48 -25 51 -25 4 0 31 35 61 77 30 42 63
85 73 95 10 11 16 26 13 33 -8 23 -118 80 -198 103 -92 27 -270 30 -358 6z"/>
<path d="M9902 1450 c-102 -27 -165 -64 -232 -137 -137 -150 -183 -364 -119
-556 49 -146 186 -282 333 -330 44 -14 90 -20 166 -20 121 0 216 24 309 79 52
30 150 119 140 127 -2 2 -33 25 -69 52 -36 27 -81 62 -102 78 l-36 29 -51 -40
c-120 -95 -297 -75 -365 42 -45 77 -43 79 87 73 61 -4 220 -3 352 1 l240 7 3
70 c8 189 -109 409 -258 485 -119 61 -263 75 -398 40z m246 -280 c41 -29 72
-75 72 -105 0 -13 -24 -15 -178 -15 -98 0 -181 3 -185 6 -13 13 34 83 75 113
37 27 50 31 108 31 58 0 72 -4 108 -30z"/>
<path d="M11195 1450 c-40 -13 -73 -32 -100 -59 -22 -22 -42 -40 -45 -41 -3 0
-3 22 -2 50 l4 50 -166 0 -166 0 2 -512 3 -513 160 0 160 0 5 295 5 295 30 44
c17 24 46 52 65 62 38 21 104 25 144 9 23 -8 26 -6 37 28 12 40 51 137 75 189
8 17 14 35 14 41 0 5 7 15 15 22 22 18 19 25 -19 38 -63 23 -155 24 -221 2z"/>
<path d="M6533 1443 l-93 -4 0 -353 c0 -325 2 -359 20 -418 33 -106 92 -176
190 -224 45 -23 72 -28 153 -32 87 -4 106 -1 159 19 33 13 86 45 119 71 32 27
60 45 60 40 1 -4 2 -32 3 -62 l1 -55 158 -3 157 -3 0 506 c0 278 -1 508 -2
513 -2 4 -73 6 -158 5 l-155 -2 -5 -288 c-5 -285 -5 -289 -30 -338 -51 -97
-194 -137 -277 -76 -64 47 -68 72 -68 406 l0 300 -70 1 c-38 0 -112 -1 -162
-3z"/>
</g>
</svg>
